# AST/ASF file generated using VICON BodyLanguage
# -----------------------------------------------
:version 1.10
:name VICON
:units
  mass 1.0
  length 0.45
  angle deg
:documentation
   .ast/.asf automatically generated from VICON data using
   VICON BodyBuilder and BodyLanguage model FoxedUp or BRILLIANT.MOD
:root
   order TX TY TZ RX RY RZ
   axis XYZ
   position 0 0 0  
   orientation 0 0 0 
:bonedata
  begin
     id 1 
     name lhipjoint
     direction 0.567149 -0.783011 0.255413 
     length 2.28399 
     axis 0 0 0  XYZ
  end
  begin
     id 2 
     name lfemur
     direction 0.34202 -0.939693 0  
     length 7.34031  
     axis 0 0 20  XYZ
    dof rx ry rz
    limits (-160.0 20.0)
           (-70.0 70.0)
           (-60.0 70.0)
  end
  begin
     id 3 
     name ltibia
     direction 0.34202 -0.939693 0   
     length 6.9833   
     axis 0 0 20   XYZ
    dof rx
    limits (-10.0 170.0)
  end
  begin
     id 4 
     name lfoot
     direction 0.136498 -0.375025 0.91691   
     length 2.33665   
     axis -90 7.62852e-016 20   XYZ
    dof rx rz
    limits (-45.0 90.0)
           (-70.0 20.0)
  end
  begin
     id 5 
     name ltoes
     direction 1.5367e-011 -4.21617e-011 1   
     length 1.15039   
     axis -90 7.62852e-016 20   XYZ
    dof rx
    limits (-90.0 20.0)
  end
  begin
     id 6 
     name rhipjoint
     direction -0.602854 -0.758518 0.247423   
     length 2.35775  
     axis 0 0 0  XYZ 
  end
  begin
     id 7 
     name rfemur
     direction -0.34202 -0.939693 0   
     length 7.43932   
     axis 0 0 -20   XYZ
    dof rx ry rz
    limits (-160.0 20.0)
           (-70.0 70.0)
           (-70.0 60.0)
  end
  begin
     id 8 
     name rtibia
     direction -0.34202 -0.939693 0   
     length 7.11893   
     axis 0 0 -20   XYZ
    dof rx
    limits (-10.0 170.0)
 end
 begin
     id 9 
     name rfoot
     direction -0.131771 -0.362037 0.922803   
     length 2.53019  
     axis -90 -7.62852e-016 -20   XYZ
    dof rx rz
    limits (-45.0 90.0)
           (-20.0 70.0)
  end
  begin
     id 10 
     name rtoes
     direction -1.53733e-011 -4.21932e-011 1   
     length 1.24596   
     axis -90 -7.62852e-016 -20   XYZ
    dof rx
    limits (-90.0 20.0)
  end
  begin
     id 11 
     name lowerback
     direction 0.0235427 0.999023 -0.0374125   
     length 2.21768   
     axis 0 0 0   XYZ
    dof rx ry rz
    limits (-20.0 45.0)
           (-30.0 30.0)
           (-30.0 30.0)
  end
  begin
     id 12 
     name upperback
     direction 0.0302156 0.996818 -0.073759   
     length 2.20352   
     axis 0 0 0   XYZ
    dof rx ry rz
    limits (-20.0 45.0)
           (-30.0 30.0)
           (-30.0 30.0)
  end
  begin
     id 13 
     name thorax
     direction 0.0187169 0.998235 -0.0563532   
     length 2.22103   
     axis 0 0 0   XYZ
    dof rx ry rz
    limits (-20.0 45.0)
           (-30.0 30.0)
           (-30.0 30.0)
  end
  begin
     id 14 
     name lowerneck
     direction -0.119528 0.987423 0.103481   
     length 1.72948   
     axis 0 0 0   XYZ
    dof rx ry rz
    limits (-20.0 45.0)
           (-30.0 30.0)
           (-30.0 30.0)
  end
  begin
     id 15 
     name upperneck
     direction 0.248049 0.963095 -0.104496   
     length 1.74979   
     axis 0 0 0   XYZ
    dof rx ry rz
    limits (-20.0 45.0)
           (-30.0 30.0)
           (-30.0 30.0)
  end
  begin
     id 16
     name head
     direction 0.0903589 0.994284 -0.056876  
     length 1.78268  
     axis 0 0 0   XYZ
    dof rx ry rz
    limits (-20.0 45.0)
           (-30.0 30.0)
           (-30.0 30.0)
  end
  begin
     id 17 
     name lclavicle
     direction 0.946008 0.242039 -0.215608  
     length 3.80783  
     axis 0 0 0   XYZ
    dof ry rz
    limits (-20.0 10.0)
           (0.0 20.0)
  end
  begin
     id 18 
     name lhumerus
     direction 1 -4.48991e-011 -2.25695e-027   
     length 4.83125   
     axis 180 -30 -90   XYZ
    dof rx ry rz
    limits (-60.0 90.0)
           (-90.0 90.0)
           (-90.0 90.0)
  end
  begin
     id 19
     name lradius
     direction 0.999991 0.00366712 -0.00211721   
     length 3.00391   
     axis 180 -30 -90   XYZ
    dof rx
    limits (-10.0 170.0)
  end
  begin
     id 20
     name lwrist
     direction 0.999991 0.00393016 -0.00141978   
     length 1.50195   
     axis -1.00488e-014 90 90   XYZ
    dof ry
    limits (-180.0 0.0)
 end
  begin
     id 21 
     name lhand
     direction 1 -4.49123e-011 2.72098e-026   
     length 1.2717   
     axis -1.73687e-014 90 90   XYZ
    dof rx rz
    limits (-90.0 90.0)
           (-45.0 45.0)
  end
  begin
     id 22 
     name lfingers
     direction 1 -4.48678e-011 5.4479e-026   
     length 1.02528   
     axis -3.47372e-014 90 90   XYZ
    dof rx
    limits (0.0 90.0)
  end
  begin
     id 23
     name lthumb
     direction 0.707107 -6.34851e-011 0.707107   
     length 1.4721   
     axis -90 45 -1.62303e-014   XYZ
    dof rx rz
    limits (-45.0 45.0)
           (-45.0 45.0)
  end
  begin
     id 24 
     name rclavicle
     direction -0.981723 0.189447 -0.0181673   
     length 3.74989  
     axis 0 0 0   XYZ 
    dof ry rz
    limits (-10.0 20.0)
           (-20.0 0.0)
  end
  begin
     id 25 
     name rhumerus
     direction -1 -4.48985e-011 2.38206e-027  
     length 4.61118   
     axis 180 30 90   XYZ
    dof rx ry rz
    limits (-90.0 60.0)
           (-90.0 90.0)
           (-90.0 90.0)
  end
  begin
     id 26 
     name rradius
     direction -1 -4.48977e-011 7.41019e-027   
     length 2.91491   
     axis 180 30 90   XYZ
    dof rx
    limits (-10.0 170.0)
  end
  begin
     id 27 
     name rwrist
     direction -1 -4.48549e-011 1.3624e-026   
     length 1.45745   
     axis -1.00488e-014 -90 -90   XYZ
    dof ry
    limits (-180.0 0.0)
  end
  begin
     id 28
     name rhand
     direction -1 -4.49107e-011 2.72109e-026   
     length 1.30769   
     axis -1.73687e-014 -90 -90   XYZ
    dof rx rz
    limits (-90.0 90.0)
           (-45.0 45.0)
  end
  begin
     id 29
     name rfingers
     direction -1 -4.48919e-011 5.44468e-026   
     length 1.05429   
     axis -3.47372e-014 -90 -90   XYZ
    dof rx
    limits (0.0 90.0)
  end
  begin
     id 30
     name rthumb
     direction -0.707107 -6.35315e-011 0.707107   
     length 1.51376   
     axis -90 -45 1.62303e-014   XYZ
    dof rx rz
    limits (-45.0 45.0)
           (-45.0 45.0)
  end
:hierarchy
  begin
    root lhipjoint rhipjoint lowerback
    lhipjoint lfemur
    lfemur ltibia
    ltibia lfoot
    lfoot ltoes
    rhipjoint rfemur
    rfemur rtibia
    rtibia rfoot
    rfoot rtoes
    lowerback upperback
    upperback thorax
    thorax lowerneck lclavicle rclavicle
    lowerneck upperneck
    upperneck head
    lclavicle lhumerus
    lhumerus lradius
    lradius lwrist
    lwrist lhand lthumb
    lhand lfingers
    rclavicle rhumerus
    rhumerus rradius
    rradius rwrist
    rwrist rhand rthumb
    rhand rfingers
  end

#!OML:ASF X:\für Bonn\!DataBase\2005_08_11_Bastian_Final\c3d\Bastian.ASF
:FULLY-SPECIFIED
:DEGREES
16
root -1.77051 17.249 5.30291 161.892 -23.4892 -177.484
lowerback 13.639 -4.16747 -0.277823
upperback 9.17203 -6.75893 0.025204
thorax 2.09995 -3.92156 0.93258
lowerneck -7.32895 -7.41281 -1.36055
upperneck -4.35798 -10.1385 7.6159
head 0.358677 -5.19849 2.33458
rclavicle -7.35503e-014 2.57923e-014
rhumerus -41.9872 32.4196 -100.911
rradius 32.8846
rwrist -32.9893
rhand -39.2989 1.70532
rfingers 7.12502
rthumb -12.2918 -27.9134
lclavicle -7.35503e-014 2.57923e-014
lhumerus 8.02844 -31.7668 85.1143
lradius 82.736
lwrist -12.955
lhand -53.5003 -9.43793
lfingers 7.12502
lthumb -25.9449 18.8114
rfemur -14.484 -10.8189 15.5802
rtibia 74.0484
rfoot 7.62402 -14.3654
rtoes -12.1484
lfemur 9.19591 0.144575 -17.9681
ltibia 27.5986
lfoot -10.4501 -10.793
ltoes -4.20448
17
root -1.79477 17.2661 5.33731 161.541 -23.6923 -177.46
lowerback 14.4233 -4.31123 -0.438277
upperback 9.35944 -7.03921 0.0420325
thorax 1.91452 -4.10191 1.13532
lowerneck -7.44505 -7.36312 -1.53253
upperneck -4.43097 -10.0701 7.81205
head 0.373561 -5.16692 2.42671
rclavicle -5.50074e-014 1.50082e-014
rhumerus -42.2287 32.5681 -101.083
rradius 32.9176
rwrist -33.702
rhand -39.2055 1.72903
rfingers 7.12502
rthumb -12.2018 -27.8951
lclavicle -5.50074e-014 1.50082e-014
lhumerus 10.0739 -31.4785 84.469
lradius 83.7713
lwrist -13.5807
lhand -53.7672 -9.47797
lfingers 7.12502
lthumb -26.2005 18.7337
rfemur -16.3202 -10.9576 15.2836
rtibia 76.5449
rfoot 8.98931 -13.6638
rtoes -12.2519
lfemur 9.76883 0.259212 -18.0266
ltibia 26.9322
lfoot -9.90073 -11.0303
ltoes -3.43357
18
root -1.81903 17.2837 5.37275 161.181 -23.8996 -177.365
lowerback 15.1773 -4.47134 -0.516528
upperback 9.55077 -7.33557 0.0763398
thorax 1.74771 -4.28821 1.31454
lowerneck -7.57521 -7.31448 -1.72913
upperneck -4.50051 -10.0006 7.99797
head 0.392416 -5.134 2.51972
rclavicle 3.81542e-014 -8.29926e-015
rhumerus -42.4125 32.678 -101.176
rradius 33.0421
rwrist -34.3544
rhand -38.9852 1.73688
rfingers 7.12502
rthumb -11.9894 -27.8997
lclavicle 3.81542e-014 -8.29926e-015
lhumerus 12.1001 -31.1647 83.8688
lradius 84.8074
lwrist -14.1268
lhand -53.9554 -9.58413
lfingers 7.12502
lthumb -26.3806 18.6006
rfemur -18.1583 -11.1332 15.1117
rtibia 79.0401
rfoot 9.54707 -12.9201
rtoes -13.4065
lfemur 10.3171 0.412983 -17.9942
ltibia 26.2607
lfoot -9.36016 -11.3208
ltoes -2.87506
19
root -1.84128 17.2957 5.41147 160.793 -24.1057 -177.267
lowerback 16.0037 -4.62756 -0.576805
upperback 9.73222 -7.62752 0.0897505
thorax 1.53216 -4.47161 1.47579
lowerneck -7.71556 -7.25722 -1.85673
upperneck -4.56531 -9.92555 8.14729
head 0.407946 -5.09929 2.58926
rclavicle -1.32875e-014 1.40143e-014
rhumerus -42.5797 32.6485 -101.239
rradius 33.2391
rwrist -34.7767
rhand -38.693 1.58648
rfingers 7.12502
rthumb -11.7076 -28.0664
lclavicle -1.32875e-014 1.40143e-014
lhumerus 14.136 -30.914 83.1916
lradius 85.828
lwrist -14.5188
lhand -54.1284 -9.63528
lfingers 7.12502
lthumb -26.5462 18.5246
rfemur -20.0046 -11.4202 14.9385
rtibia 81.5422
rfoot 9.40948 -12.1375
rtoes -14.2958
lfemur 10.8549 0.517133 -17.9783
ltibia 25.6433
lfoot -8.81713 -11.5742
ltoes -2.18907
20
root -1.86363 17.3069 5.45567 160.379 -24.291 -177.118
lowerback 16.9117 -4.79189 -0.560267
upperback 9.88787 -7.92051 0.116623
thorax 1.24422 -4.65218 1.62672
lowerneck -7.84991 -7.2072 -2.0239
upperneck -4.6248 -9.85596 8.30187
head 0.426801 -5.06625 2.66767
rclavicle 3.80486e-014 4.22417e-015
rhumerus -42.7558 32.6028 -101.265
rradius 33.5186
rwrist -35.2343
rhand -38.3648 1.4758
rfingers 7.12502
rthumb -11.3911 -28.1948
lclavicle 3.80486e-014 4.22417e-015
lhumerus 16.1152 -30.6616 82.5755
lradius 86.7485
lwrist -14.838
lhand -54.2949 -9.77094
lfingers 7.12502
lthumb -26.7056 18.3647
rfemur -21.9067 -11.8154 14.8131
rtibia 84.035
rfoot 8.92992 -11.2507
rtoes -13.8791
lfemur 11.3395 0.55985 -17.9526
ltibia 25.1143
lfoot -8.36615 -11.7215
ltoes -1.85896
21
root -1.88421 17.3155 5.5005 159.954 -24.4707 -176.97
lowerback 17.8346 -4.9533 -0.546329
upperback 10.049 -8.21324 0.137539
thorax 0.959125 -4.83404 1.78056
lowerneck -8.03774 -7.15331 -2.18975
upperneck -4.64342 -9.78315 8.45733
head 0.467475 -5.0295 2.74372
rclavicle 1.61947e-014 2.98177e-015
rhumerus -42.9652 32.6418 -101.324
rradius 33.9114
rwrist -35.7087
rhand -38.0691 1.30067
rfingers 7.12502
rthumb -11.106 -28.3855
lclavicle 1.61947e-014 2.98177e-015
lhumerus 18.0876 -30.3956 81.9759
lradius 87.638
lwrist -15.1032
lhand -54.4222 -9.84949
lfingers 7.12502
lthumb -26.8274 18.2675
rfemur -23.8439 -12.2764 14.6937
rtibia 86.5373
rfoot 8.05041 -10.4101
rtoes -13.4505
lfemur 11.8076 0.603209 -17.9184
ltibia 24.6493
lfoot -7.93305 -11.8753
ltoes -1.50305
22
root -1.9043 17.3234 5.54237 159.504 -24.6364 -176.769
lowerback 18.7461 -5.12267 -0.507667
upperback 10.2013 -8.51209 0.178605
thorax 0.675872 -5.01847 1.94864
lowerneck -8.18733 -7.0922 -2.35953
upperneck -4.68173 -9.69803 8.59408
head 0.493634 -4.98745 2.81739
rclavicle 5.59082e-015 -5.01931e-015
rhumerus -43.1473 32.5715 -101.291
rradius 34.3108
rwrist -35.9856
rhand -37.7242 1.11376
rfingers 7.12502
rthumb -10.7732 -28.59
lclavicle 5.59082e-015 -5.01931e-015
lhumerus 19.9848 -30.121 81.4085
lradius 88.4402
lwrist -15.3039
lhand -54.5903 -10.0207
lfingers 7.12502
lthumb -26.9882 18.0715
rfemur -25.806 -12.7885 14.6529
rtibia 89.0337
rfoot 6.88206 -9.60598
rtoes -11.8908
lfemur 12.2655 0.643645 -17.8284
ltibia 24.2305
lfoot -7.55248 -12.0441
ltoes -1.25901
23
root -1.92355 17.3315 5.58266 159.033 -24.79 -176.567
lowerback 19.654 -5.28324 -0.446497
upperback 10.3663 -8.79853 0.194952
thorax 0.40572 -5.1966 2.08166
lowerneck -8.32589 -7.04623 -2.54504
upperneck -4.72481 -9.63317 8.78131
head 0.521329 -4.95612 2.91065
rclavicle -2.21396e-014 -1.54058e-014
rhumerus -43.3197 32.4368 -101.254
rradius 34.7621
rwrist -36.1792
rhand -37.3935 0.958071
rfingers 7.12502
rthumb -10.4542 -28.762
lclavicle -2.21396e-014 -1.54058e-014
lhumerus 21.8645 -29.9329 80.8148
lradius 89.1844
lwrist -15.4292
lhand -54.7524 -10.1388
lfingers 7.12502
lthumb -27.1433 17.9293
rfemur -27.8054 -13.3042 14.639
rtibia 91.5553
rfoot 5.69526 -8.9296
rtoes -8.41759
lfemur 12.7449 0.592834 -17.7619
ltibia 23.8391
lfoot -7.17671 -12.1256
ltoes -0.738221
24
root -1.94212 17.3395 5.62342 158.561 -24.9108 -176.363
lowerback 20.5954 -5.44403 -0.412168
upperback 10.5096 -9.08844 0.236806
thorax 0.108963 -5.37789 2.26877
lowerneck -8.46406 -6.98736 -2.76751
upperneck -4.75204 -9.54607 8.9518
head 0.553629 -4.91181 3.00631
rclavicle 1.49089e-014 3.23025e-015
rhumerus -43.5348 32.3806 -101.201
rradius 35.2735
rwrist -36.3374
rhand -37.1278 0.810628
rfingers 7.12502
rthumb -10.198 -28.9222
lclavicle 1.49089e-014 3.23025e-015
lhumerus 23.6981 -29.7118 80.2792
lradius 89.8753
lwrist -15.5169
lhand -54.9396 -10.1585
lfingers 7.12502
lthumb -27.3223 17.8815
rfemur -29.8915 -13.8114 14.6604
rtibia 94.0965
rfoot 4.61582 -8.39273
rtoes -4.61457
lfemur 13.2015 0.556542 -17.6941
ltibia 23.4993
lfoot -6.87601 -12.1713
ltoes -0.562313
